<svg width="72" height="72" viewBox="0 0 72 72" fill="none" xmlns="http://www.w3.org/2000/svg">
<path d="M14.4759 57.6892C13.4137 57.6892 12.4104 57.6443 11.4367 57.3596C7.98443 56.3408 5.55013 53.1496 5.55013 49.5088C5.53537 41.1786 5.53537 32.8484 5.55013 24.5032C5.55013 20.0084 9.12044 16.3377 13.576 16.3228C24.9655 16.2928 36.3551 16.2928 47.7447 16.3228C52.0822 16.3228 55.6672 19.7388 55.7263 24.1436C55.8443 32.6985 55.8443 41.2535 55.7263 49.8085C55.6672 54.3182 51.9789 57.6742 47.5382 57.6892C41.9466 57.6892 36.3404 57.6892 30.7488 57.6892C30.262 57.6892 29.8341 57.7941 29.4063 58.0338C24.5377 60.6408 19.6691 63.2327 14.8005 65.8247C14.3579 66.0644 13.9153 66.2741 13.4284 66.3491C12.4694 66.5139 11.717 65.8546 11.6875 64.8658C11.6875 64.2815 11.8941 63.7721 12.1006 63.2477C12.8088 61.5996 13.5169 59.9366 14.2251 58.2885C14.2989 58.1087 14.3726 57.9289 14.4759 57.6892ZM44.0859 40.1148C45.7677 40.1148 47.1398 38.7215 47.1693 37.0285C47.1841 35.3205 45.7677 33.8672 44.0859 33.8672C42.4187 33.8672 41.0319 35.2755 41.0172 36.9685C41.0172 38.7065 42.3892 40.1148 44.0859 40.1148ZM28.1818 36.9536C28.1818 38.7065 29.5243 40.0999 31.2357 40.1148C32.9176 40.1148 34.2897 38.7514 34.3192 37.0434C34.3487 35.3354 32.9471 33.8822 31.2505 33.8672C29.5833 33.8672 28.1965 35.2605 28.1818 36.9536ZM17.2348 40.1148C18.9167 40.1148 20.274 38.7365 20.2887 37.0135C20.2887 35.2905 18.9019 33.8522 17.22 33.8672C15.5529 33.8672 14.1808 35.2755 14.1661 36.9685C14.1661 38.7215 15.5234 40.1148 17.2348 40.0999V40.1148Z" fill="#662D91"/>
<path d="M41.1775 5.63999C44.1577 5.63999 47.1231 5.63999 50.1033 5.63999C59.0438 5.63999 66.2877 12.9963 66.2877 22.0757C66.2877 28.2934 66.2877 34.5111 66.2877 40.7288C66.2877 44.5643 62.983 48.235 59.4717 46.8416C59.2947 46.7667 59.3832 46.4071 59.3389 45.4183C58.9996 38.8111 59.0586 32.1888 59.3389 25.5816C59.5307 21.0119 57.8783 17.3862 54.3228 14.8092C52.3311 13.3559 49.882 12.6667 47.433 12.6817C37.2532 12.6817 27.0733 12.6817 16.8935 12.6817C16.3723 12.6817 16.1755 12.417 16.3034 11.8876C17.2624 8.12706 20.4343 5.63998 24.2997 5.625C29.9355 5.625 35.5713 5.625 41.2071 5.625L41.1775 5.63999Z" fill="#662D91"/>
</svg>
